<svg xmlns="http://www.w3.org/2000/svg" viewBox="0 0 64 64">
  <rect width="64" height="64" rx="15" fill="#10120f"/>
  <path d="M14 24 8 14c-1-2 1-4 3-3l13 6m26 7 6-10c1-2-1-4-3-3l-13 6" fill="#d3f36b" stroke="#10120f" stroke-width="3" stroke-linejoin="round"/>
  <path d="M12 29c0-9 7-16 16-16h8c9 0 16 7 16 16v12c0 8-7 14-15 14H27c-8 0-15-6-15-14V29Z" fill="#eeefe7" stroke="#10120f" stroke-width="3"/>
  <path d="M32 13V8m-4 0h8" stroke="#d3f36b" stroke-width="3" stroke-linecap="round"/>
  <circle cx="24" cy="32" r="4" fill="#10120f"/>
  <path d="M37 27v12h-3v-1c-1 1-2 2-4 2-4 0-6-3-6-7s2-7 6-7c2 0 3 1 4 2v-1h3Zm-7 3c-2 0-3 1-3 3s1 3 3 3 3-1 3-3-1-3-3-3Z" fill="#10120f" transform="translate(7 -1) scale(.72)"/>
  <path d="m32 39 4 3-4 3-4-3 4-3Z" fill="#d3f36b" stroke="#10120f" stroke-width="1.5" stroke-linejoin="round"/>
  <path d="M25 48c4 3 10 3 14 0" fill="none" stroke="#10120f" stroke-width="2.5" stroke-linecap="round"/>
</svg>
